<?xml version="1.0" encoding="UTF-8" standalone="no"?>
<svg
   xmlns:dc="http://purl.org/dc/elements/1.1/"
   xmlns:cc="http://creativecommons.org/ns#"
   xmlns:rdf="http://www.w3.org/1999/02/22-rdf-syntax-ns#"
   xmlns:svg="http://www.w3.org/2000/svg"
   xmlns="http://www.w3.org/2000/svg"
   xmlns:sodipodi="http://sodipodi.sourceforge.net/DTD/sodipodi-0.dtd"
   xmlns:inkscape="http://www.inkscape.org/namespaces/inkscape"
   viewBox="0 0 1920 1080"
   version="1.1"
   id="svg20"
   sodipodi:docname="fanart.svg"
   width="1920"
   height="1080"
   inkscape:version="0.92.1 r15371">
  <metadata
     id="metadata26">
    <rdf:RDF>
      <cc:Work
         rdf:about="">
        <dc:format>image/svg+xml</dc:format>
        <dc:type
           rdf:resource="http://purl.org/dc/dcmitype/StillImage" />
        <dc:title></dc:title>
      </cc:Work>
    </rdf:RDF>
  </metadata>
  <defs
     id="defs24" />
  <sodipodi:namedview
     pagecolor="#ffffff"
     bordercolor="#666666"
     borderopacity="1"
     objecttolerance="10"
     gridtolerance="10"
     guidetolerance="10"
     inkscape:pageopacity="1"
     inkscape:pageshadow="2"
     inkscape:window-width="1600"
     inkscape:window-height="836"
     id="namedview22"
     showgrid="false"
     inkscape:zoom="0.38725173"
     inkscape:cx="974.58814"
     inkscape:cy="475.16966"
     inkscape:window-x="0"
     inkscape:window-y="27"
     inkscape:window-maximized="1"
     inkscape:current-layer="svg20" />
  <linearGradient
     id="a"
     gradientUnits="userSpaceOnUse"
     x1="-8600.4922"
     y1="-4719.145"
     x2="-8600.4922"
     y2="-4553.374"
     gradientTransform="matrix(-2.8629544,0,0,-2.8629544,-23521.478,-12377.231)">
    <stop
       offset="0"
       stop-color="#a80002"
       id="stop2" />
    <stop
       offset="1"
       stop-color="#ea021a"
       id="stop4" />
  </linearGradient>
  <linearGradient
     id="b"
     gradientUnits="userSpaceOnUse"
     x1="99.850998"
     y1="138.674"
     x2="99.850998"
     y2="-27.096001"
     gradientTransform="matrix(2.8629544,0,0,2.8629544,0,736.44542)">
    <stop
       offset="0"
       stop-color="#00043b"
       id="stop9" />
    <stop
       offset="1"
       stop-color="#002672"
       id="stop11" />
  </linearGradient>
  <g
     id="g4507"
     transform="translate(144.48745,-368.22274)">
    <path
       style="fill:url(#a);stroke-width:2.86295438"
       inkscape:connector-curvature="0"
       id="path7"
       d="m 571.732,736.44547 h 1036.3895 c 12.597,0 22.9036,10.30663 22.9036,22.90363 v 297.7473 c 0,12.597 -10.3066,22.9036 -22.9036,22.9036 H 571.732 Z" />
    <path
       style="fill:url(#b);stroke-width:2.86295438"
       inkscape:connector-curvature="0"
       id="path14"
       d="M 571.732,1080 H 22.903636 C 10.306636,1080 0,1069.6934 0,1057.0964 V 759.06281 C 0,747.0384 10.020341,736.44547 22.61734,736.44547 H 571.732 Z" />
    <path
       style="opacity:0.2;fill:#ffffff;stroke-width:2.86295438"
       inkscape:connector-curvature="0"
       id="path16"
       d="M 22.903636,736.44547 H 1608.1215 c 12.597,0 22.9036,10.30663 22.9036,22.90363 V 868.71396 L 32.923976,932.55785 C 14.601068,933.13044 0,948.3041 0,966.627 V 759.3491 c 0,-12.597 10.306636,-22.90363 22.903636,-22.90363 z" />
    <path
       style="fill:#ffffff;stroke-width:2.86295438"
       inkscape:connector-curvature="0"
       id="path18"
       d="m 386.49885,1041.9227 c 3.72184,2.0041 11.16552,4.2944 20.89957,4.2944 16.31884,0.2863 25.194,-6.0122 31.77879,-20.6132 l 87.60641,-195.25353 c -3.72184,-2.00407 -11.73812,-4.00813 -18.03662,-4.29443 -11.16552,-0.28629 -26.33918,2.00407 -36.07322,25.194 l -28.34325,66.99313 -55.82761,-90.18306 c -3.72184,-1.14518 -12.31071,-2.57666 -18.8955,-2.57666 -19.46809,0 -30.63361,7.15739 -42.08543,19.46809 l -53.82355,58.97686 43.51691,68.42461 c 8.01627,12.597 18.60921,18.8955 35.78693,18.8955 11.16553,0 20.61327,-2.57666 24.90771,-4.58072 l -52.39207,-79.01755 37.21841,-39.22247 60.98093,95.62268 z M 271.69438,968.05848 c 0,14.31477 -5.72591,22.61734 -33.78287,22.61734 -3.72184,0 -6.87109,-0.28629 -10.02034,-0.85888 V 799.14417 c 0,-14.60107 4.86703,-29.48843 33.21028,-29.48843 3.43554,0 7.15738,0.28629 10.59293,1.14518 z M 213.5764,939.42894 c 0,26.91177 -17.46402,46.37986 -53.25095,50.388 -25.76659,2.86295 -63.271294,-0.5726 -81.021612,-2.57666 -0.572591,-2.86296 -1.145182,-6.5848 -1.145182,-9.44775 0,-23.47623 12.597,-28.91584 24.621404,-28.91584 12.31071,0 31.7788,2.00406 46.37987,2.00406 16.03254,0 20.61327,-5.43961 20.61327,-10.59293 0,-6.87109 -6.2985,-9.44775 -18.8955,-12.02441 l -33.49657,-6.0122 c -28.056951,-5.43961 -42.944314,-24.9077 -42.944314,-45.52098 0,-25.19399 17.750317,-46.09356 52.678364,-50.1017 26.33918,-2.86295 58.69056,0.2863 76.15459,2.57666 0.57259,3.14925 0.85888,6.01221 0.85888,9.16145 0,23.47623 -12.3107,28.34325 -24.33511,28.34325 -9.16146,0 -23.18993,-1.71777 -39.50877,-1.71777 -16.60514,0 -23.18993,4.58073 -23.18993,10.02034 0,5.72591 6.58479,8.30257 16.89143,10.02034 l 32.35138,6.01221 c 33.21027,6.2985 47.23875,25.194 47.23875,48.38393 m 428.58428,41.22654 c -1.71777,-13.45589 2.57666,-20.61327 9.73405,-20.61327 7.72997,0 26.33918,8.58886 52.67836,8.58886 28.05695,0 38.64988,-10.30663 38.64988,-23.47622 0,-9.16146 -4.00813,-16.60514 -29.77472,-23.76253 l -28.62955,-8.01627 c -30.63361,-8.30257 -43.23061,-23.76252 -43.23061,-43.23061 0,-23.47623 18.6092,-45.23468 61.83982,-45.23468 19.46809,0 43.5169,4.58073 57.83168,10.30664 1.71777,13.16959 -2.57666,20.04068 -9.16146,20.04068 -7.15738,0 -24.62141,-8.01628 -48.67022,-8.01628 -25.76659,0 -35.50064,9.44775 -35.50064,21.75846 0,8.01627 3.72184,15.45995 27.19807,22.04475 l 29.20213,8.58886 c 32.35139,9.16145 45.52098,24.33511 45.52098,44.66209 0,25.194 -19.75439,47.52504 -65.84795,47.52504 -21.18587,0 -46.66616,-5.15331 -61.83982,-11.16552 m 316.64276,-72.43275 c 0,51.81948 -36.35952,83.31198 -77.29977,83.31198 -24.6214,0 -44.37579,-11.45182 -56.1139,-28.05696 v 70.14235 c 0,6.0122 -3.43555,10.0204 -13.74219,10.0204 -4.58072,0 -9.73404,-0.5726 -12.0244,-1.4315 V 828.9189 c 2.29036,-0.5726 7.44368,-1.71778 12.0244,-1.71778 10.30664,0 13.74219,4.00814 13.74219,10.02034 v 16.03255 c 11.73811,-16.60514 31.4925,-28.05696 56.1139,-28.05696 40.94025,0.2863 77.29977,31.4925 77.29977,83.02568 m -26.33918,0 c 0,-35.50063 -23.76252,-59.83574 -55.54131,-59.83574 -22.04475,0 -42.37173,12.597 -51.53318,31.2062 v 58.11797 c 9.16145,18.32291 29.48843,31.20621 51.53318,31.20621 31.77879,-0.2863 55.54131,-24.62141 55.54131,-60.69464 m 51.81948,0 c 0,-47.52504 35.21436,-82.73938 82.16676,-82.73938 47.2388,0 82.1668,35.50064 82.1668,82.73938 0,47.81134 -35.2143,83.31198 -82.1668,83.31198 -46.9524,0 -82.16676,-35.50064 -82.16676,-83.31198 m 137.99436,0 c 0,-36.64581 -25.194,-59.83574 -55.8276,-59.83574 -30.6336,0 -55.8276,23.18993 -55.8276,59.83574 0,37.21841 25.194,60.40834 55.8276,60.40834 30.6336,0 55.8276,-23.18993 55.8276,-60.40834 m 155.1722,-68.42461 c 0,9.73405 -4.2945,12.02441 -13.7422,12.02441 -18.3229,0 -44.3758,6.01221 -57.5454,35.50064 v 92.18713 c 0,6.2985 -3.4355,10.02034 -13.7422,10.02034 -4.5807,0 -9.734,-0.57259 -12.0244,-1.43148 V 828.9189 c 2.2904,-0.5726 7.4437,-1.71778 12.0244,-1.71778 10.3067,0 13.7422,4.00814 13.7422,10.02034 v 19.46809 c 14.6011,-21.18586 40.0814,-32.63768 70.1424,-27.77065 0.2863,2.00406 1.1452,6.87109 1.1452,10.87922 m 148.8736,140.85736 c -1.7178,-13.45589 2.5767,-20.61327 9.734,-20.61327 7.73,0 26.3392,8.58886 52.6784,8.58886 28.057,0 38.6499,-10.30663 38.6499,-23.47622 0,-9.16146 -4.0081,-16.60514 -29.7747,-23.76253 l -28.6296,-8.01627 c -30.6336,-8.30257 -43.2306,-23.76252 -43.2306,-43.23061 0,-23.47623 18.6092,-45.23468 61.8398,-45.23468 19.4681,0 43.5169,4.58073 57.8317,10.30664 1.7178,13.16959 -2.5767,20.04068 -9.1614,20.04068 -6.8711,0 -24.6215,-8.01628 -48.6703,-8.01628 -25.7666,0 -35.5006,9.44775 -35.5006,21.75846 0,8.01627 3.7218,15.45995 27.1981,22.04475 l 29.2021,8.01627 c 32.3514,9.16145 45.521,24.33511 45.521,44.66209 0,25.194 -19.7544,47.52504 -65.848,47.52504 -20.8995,0.57259 -46.3798,-4.58072 -61.8398,-10.59293 m -26.3392,0 c -13.7422,6.5848 -29.7747,10.59293 -46.0935,10.59293 -31.4925,0 -50.388,-18.03661 -50.388,-49.24281 V 798.85787 c 0,-6.0122 3.4355,-10.02034 13.7421,-10.02034 4.5808,0 9.7341,1.14518 12.0244,2.00407 v 37.791 h 63.8439 c 0.2863,2.00407 0.8589,6.2985 0.8589,10.30664 0,9.44775 -4.0081,12.3107 -9.734,12.3107 h -55.255 v 88.46529 c 0,19.46809 9.4477,27.77066 27.4843,27.77066 16.3189,0 26.0529,-6.2985 33.7829,-6.2985 7.4437,0.57259 11.1655,7.15739 9.734,19.46809" />
  </g>
</svg>
