<?xml version="1.0" encoding="UTF-8" standalone="no"?>
<svg
   xmlns:dc="http://purl.org/dc/elements/1.1/"
   xmlns:cc="http://creativecommons.org/ns#"
   xmlns:rdf="http://www.w3.org/1999/02/22-rdf-syntax-ns#"
   xmlns:svg="http://www.w3.org/2000/svg"
   xmlns="http://www.w3.org/2000/svg"
   xmlns:sodipodi="http://sodipodi.sourceforge.net/DTD/sodipodi-0.dtd"
   xmlns:inkscape="http://www.inkscape.org/namespaces/inkscape"
   viewBox="0 0 511.99999 512"
   version="1.1"
   id="svg5323"
   sodipodi:docname="icon.svg"
   width="512"
   height="512"
   inkscape:version="0.92.1 r15371"
   inkscape:export-xdpi="96"
   inkscape:export-ydpi="96">
  <metadata
     id="metadata5329">
    <rdf:RDF>
      <cc:Work
         rdf:about="">
        <dc:format>image/svg+xml</dc:format>
        <dc:type
           rdf:resource="http://purl.org/dc/dcmitype/StillImage" />
        <dc:title></dc:title>
      </cc:Work>
    </rdf:RDF>
  </metadata>
  <defs
     id="defs5327" />
  <sodipodi:namedview
     pagecolor="#ffffff"
     bordercolor="#666666"
     borderopacity="1"
     objecttolerance="10"
     gridtolerance="10"
     guidetolerance="10"
     inkscape:pageopacity="1"
     inkscape:pageshadow="2"
     inkscape:window-width="1600"
     inkscape:window-height="836"
     id="namedview5325"
     showgrid="false"
     inkscape:zoom="0.56169913"
     inkscape:cx="-74.773121"
     inkscape:cy="50.208281"
     inkscape:window-x="0"
     inkscape:window-y="27"
     inkscape:window-maximized="1"
     inkscape:current-layer="svg5323" />
  <linearGradient
     id="a"
     gradientUnits="userSpaceOnUse"
     x1="-8600.4922"
     y1="-4719.145"
     x2="-8600.4922"
     y2="-4553.374"
     gradientTransform="matrix(-0.82196875,0,0,-0.82196875,-6729.9917,-3608.0045)">
    <stop
       offset="0"
       stop-color="#a80002"
       id="stop5305" />
    <stop
       offset="1"
       stop-color="#ea021a"
       id="stop5307" />
  </linearGradient>
  <path
     d="M 187.29122,156.99874 H 484.8439 c 3.61667,0 6.57575,2.95909 6.57575,6.57575 v 85.48475 c 0,3.61666 -2.95908,6.57575 -6.57575,6.57575 H 187.29122 Z"
     id="path5310"
     inkscape:connector-curvature="0"
     style="fill:url(#a);stroke-width:0.82196873" />
  <linearGradient
     id="b"
     gradientUnits="userSpaceOnUse"
     x1="99.850998"
     y1="138.674"
     x2="99.850998"
     y2="-27.096001"
     gradientTransform="matrix(0.82196875,0,0,0.82196875,23.144063,156.99874)">
    <stop
       offset="0"
       stop-color="#00043b"
       id="stop5312" />
    <stop
       offset="1"
       stop-color="#002672"
       id="stop5314" />
  </linearGradient>
  <path
     d="M 187.29122,255.63499 H 29.719813 c -3.616663,0 -6.57575,-2.95909 -6.57575,-6.57575 v -85.56695 c 0,-3.45227 2.876891,-6.49355 6.493553,-6.49355 H 187.29122 Z"
     id="path5317"
     inkscape:connector-curvature="0"
     style="fill:url(#b);stroke-width:0.82196873" />
  <path
     d="M 29.719813,156.99874 H 484.8439 c 3.61667,0 6.57575,2.95909 6.57575,6.57575 V 194.9737 L 32.596704,213.3036 c -5.2606,0.16439 -9.452641,4.52083 -9.452641,9.78143 v -59.51054 c 0,-3.61666 2.959087,-6.57575 6.57575,-6.57575 z"
     id="path5319"
     inkscape:connector-curvature="0"
     style="opacity:0.2;fill:#ffffff;stroke-width:0.82196873" />
  <path
     d="m 134.10984,244.70281 c 1.06856,0.57537 3.20568,1.23295 6.00037,1.23295 4.68522,0.0822 7.23333,-1.72614 9.12386,-5.91818 l 25.15224,-56.05827 c -1.06856,-0.57537 -3.37007,-1.15075 -5.1784,-1.23295 -3.20568,-0.0822 -7.56212,0.57538 -10.35681,7.23333 l -8.13749,19.23407 -16.02839,-25.89202 c -1.06856,-0.32879 -3.53447,-0.73977 -5.42499,-0.73977 -5.58939,0 -8.79507,2.05492 -12.08294,5.58939 l -15.45302,16.93255 12.49393,19.64505 c 2.30151,3.61667 5.3428,5.425 10.27461,5.425 3.20567,0 5.91817,-0.73977 7.15112,-1.31515 l -15.04202,-22.68634 10.68559,-11.26097 17.50793,27.45376 z m -32.96094,-21.2068 c 0,4.10985 -1.64394,6.49355 -9.699234,6.49355 -1.06856,0 -1.972725,-0.0822 -2.876891,-0.24659 v -54.74311 c 0,-4.19205 1.397347,-8.46628 9.534838,-8.46628 0.986362,0 2.054917,0.0822 3.041287,0.32878 z m -16.685969,-8.21969 c 0,7.72651 -5.014009,13.3159 -15.288618,14.46665 -7.397719,0.82197 -18.16551,-0.16439 -23.261716,-0.73977 -0.164393,-0.82197 -0.328787,-1.89053 -0.328787,-2.71249 0,-6.74015 3.616662,-8.30189 7.068931,-8.30189 3.534466,0 9.123853,0.57538 13.315894,0.57538 4.603025,0 5.918175,-1.56174 5.918175,-3.04129 0,-1.97272 -1.808332,-2.71249 -5.424994,-3.45226 l -9.617034,-1.72614 c -8.055294,-1.56174 -12.329532,-7.15113 -12.329532,-13.0693 0,-7.23333 5.096207,-13.2337 15.124225,-14.38445 7.562113,-0.82197 16.85036,0.0822 21.864369,0.73977 0.164394,0.90416 0.246591,1.72613 0.246591,2.6303 0,6.74014 -3.534466,8.13749 -6.986735,8.13749 -2.6303,0 -6.657947,-0.49318 -11.343168,-0.49318 -4.767419,0 -6.657947,1.31515 -6.657947,2.87689 0,1.64393 1.890528,2.38371 4.849615,2.87689 l 9.288247,1.72613 c 9.534838,1.80833 13.562484,7.23333 13.562484,13.89127 m 123.048719,11.83635 c -0.49318,-3.86325 0.73977,-5.91817 2.79469,-5.91817 2.21932,0 7.56212,2.46591 15.12423,2.46591 8.05529,0 11.09658,-2.95909 11.09658,-6.74015 0,-2.6303 -1.15076,-4.76742 -8.54848,-6.82234 l -8.21969,-2.30151 c -8.79506,-2.38371 -12.41172,-6.82234 -12.41172,-12.41173 0,-6.74014 5.34279,-12.98711 17.75452,-12.98711 5.58939,0 12.49393,1.31515 16.60377,2.95909 0.49318,3.78106 -0.73977,5.75378 -2.6303,5.75378 -2.05492,0 -7.06893,-2.30151 -13.97347,-2.30151 -7.39772,0 -10.19241,2.7125 -10.19241,6.24696 0,2.30152 1.06856,4.43863 7.8087,6.32916 l 8.38408,2.46591 c 9.28825,2.6303 13.06931,6.98673 13.06931,12.82271 0,7.23333 -5.67159,13.64468 -18.90529,13.64468 -6.08256,0 -13.39809,-1.47954 -17.75452,-3.20568 m 90.90974,-20.79581 c 0,14.87764 -10.439,23.9193 -22.19315,23.9193 -7.06893,0 -12.74052,-3.28788 -16.11059,-8.0553 v 20.13824 c 0,1.72613 -0.98636,2.87689 -3.94545,2.87689 -1.31515,0 -2.79469,-0.1644 -3.45227,-0.41099 v -61.23667 c 0.65758,-0.16439 2.13712,-0.49318 3.45227,-0.49318 2.95909,0 3.94545,1.15076 3.94545,2.87689 v 4.60302 c 3.37007,-4.76741 9.04166,-8.05529 16.11059,-8.05529 11.75415,0.0822 22.19315,9.04166 22.19315,23.83709 m -7.56211,0 c 0,-10.19241 -6.82234,-17.17914 -15.94619,-17.17914 -6.32916,0 -12.16514,3.61666 -14.79544,8.95946 v 16.68596 c 2.6303,5.2606 8.46628,8.95946 14.79544,8.95946 9.12385,-0.0822 15.94619,-7.06893 15.94619,-17.42574 m 14.87763,0 c 0,-13.64468 10.11022,-23.75489 23.59051,-23.75489 13.56248,0 23.5905,10.19241 23.5905,23.75489 0,13.72688 -10.11021,23.9193 -23.5905,23.9193 -13.48029,0 -23.59051,-10.19242 -23.59051,-23.9193 m 39.6189,0 c 0,-10.5212 -7.23333,-17.17914 -16.02839,-17.17914 -8.79507,0 -16.02839,6.65794 -16.02839,17.17914 0,10.6856 7.23332,17.34355 16.02839,17.34355 8.79506,0 16.02839,-6.65795 16.02839,-17.34355 m 44.5507,-19.64505 c 0,2.7947 -1.23295,3.45227 -3.94545,3.45227 -5.2606,0 -12.74051,1.72613 -16.52157,10.19241 v 26.4674 c 0,1.80833 -0.98636,2.87689 -3.94545,2.87689 -1.31515,0 -2.79469,-0.1644 -3.45227,-0.41099 v -45.70146 c 0.65758,-0.16439 2.13712,-0.49318 3.45227,-0.49318 2.95909,0 3.94545,1.15076 3.94545,2.87689 v 5.58939 c 4.19204,-6.08257 11.50757,-9.37045 20.13824,-7.9731 0.0822,0.57538 0.32878,1.97273 0.32878,3.12348 m 42.74238,40.44086 c -0.49318,-3.86325 0.73977,-5.91817 2.79469,-5.91817 2.21932,0 7.56212,2.46591 15.12423,2.46591 8.05529,0 11.09658,-2.95909 11.09658,-6.74015 0,-2.6303 -1.15076,-4.76742 -8.54848,-6.82234 l -8.21969,-2.30151 c -8.79506,-2.38371 -12.41172,-6.82234 -12.41172,-12.41173 0,-6.74014 5.34279,-12.98711 17.75452,-12.98711 5.58939,0 12.49393,1.31515 16.60377,2.95909 0.49318,3.78106 -0.73977,5.75378 -2.6303,5.75378 -1.97273,0 -7.06893,-2.30151 -13.97347,-2.30151 -7.39772,0 -10.19241,2.7125 -10.19241,6.24696 0,2.30152 1.06856,4.43863 7.8087,6.32916 l 8.38408,2.30151 c 9.28825,2.6303 13.06931,6.98674 13.06931,12.82272 0,7.23332 -5.67159,13.64468 -18.90529,13.64468 -6.00037,0.16439 -13.31589,-1.31515 -17.75452,-3.04129 m -7.56211,0 c -3.94545,1.89053 -8.54848,3.04129 -13.2337,3.04129 -9.04166,0 -14.46665,-5.1784 -14.46665,-14.13786 v -41.09844 c 0,-1.72614 0.98636,-2.87689 3.94545,-2.87689 1.31515,0 2.79469,0.32879 3.45227,0.57538 v 10.84998 h 18.3299 c 0.0822,0.57538 0.24659,1.80833 0.24659,2.95909 0,2.7125 -1.15075,3.53447 -2.79469,3.53447 h -15.864 v 25.39883 c 0,5.58939 2.7125,7.9731 7.8909,7.9731 4.68522,0 7.47992,-1.80833 9.69923,-1.80833 2.13712,0.16439 3.20568,2.05492 2.7947,5.58938"
     id="path5321"
     inkscape:connector-curvature="0"
     style="fill:#ffffff;stroke-width:0.82196873" />
  <text
     xml:space="preserve"
     style="font-style:normal;font-weight:normal;font-size:40px;line-height:125%;font-family:sans-serif;letter-spacing:0px;word-spacing:0px;fill:#000000;fill-opacity:1;stroke:none;stroke-width:1px;stroke-linecap:butt;stroke-linejoin:miter;stroke-opacity:1"
     x="154.90067"
     y="352.62781"
     id="text5876"><tspan
       sodipodi:role="line"
       id="tspan5874"
       x="154.90067"
       y="352.62781"
       style="font-style:normal;font-variant:normal;font-weight:normal;font-stretch:normal;font-size:85.33333588px;font-family:'Sky Text';-inkscape-font-specification:'Sky Text'">Video</tspan></text>
</svg>
