<svg width="491" height="80" xmlns="http://www.w3.org/2000/svg" overflow="visible" viewBox="0 0 491 80"><path d="M145.83.001h-138.56c-3.998 0-7.267 3.269-7.267 7.266v65.472c0 3.995 3.269 7.262 7.267 7.262l138.56-.009v-79.99z" fill="#0E2D6D"/><linearGradient id="a" y2="39.405" gradientUnits="userSpaceOnUse" x2="75.772" y1="1.684" x1="75.772"><stop stop-color="#FFF" offset="0"/><stop stop-color="#E7ECF5" offset=".039"/><stop stop-color="#BACAE4" offset=".122"/><stop stop-color="#93ACD4" offset=".21"/><stop stop-color="#7293C7" offset=".303"/><stop stop-color="#577EBC" offset=".403"/><stop stop-color="#426EB3" offset=".51"/><stop stop-color="#3363AE" offset=".631"/><stop stop-color="#2B5CAA" offset=".774"/><stop stop-color="#285AA9" offset="1"/></linearGradient><path opacity=".8" d="M145.83 1.684h-140.11s3.063 16.504 22.383 30.342c0 0 9.891 7.446 16.334 7.379h101.39v-37.721z" fill="url(#a)"/><linearGradient id="b" gradientUnits="userSpaceOnUse" x2="318.5" y1="79.989" x1="318.5"><stop stop-color="#D92231" offset="0"/><stop stop-color="#D12130" offset=".193"/><stop stop-color="#BD1F2C" offset=".448"/><stop stop-color="#9D1A26" offset=".735"/><stop stop-color="#7C131D" offset="1"/></linearGradient><path d="M145.83 79.989l338.09-.006c3.991 0 7.262-3.267 7.262-7.262v-65.455c0-3.997-3.272-7.266-7.262-7.266h-338.09v79.989z" fill="url(#b)"/><linearGradient id="c" y2="39.405" gradientUnits="userSpaceOnUse" x2="315.62" y1="1.684" x1="315.62"><stop stop-color="#FFF" offset="0"/><stop stop-color="#FAE1E3" offset=".048"/><stop stop-color="#F2B4B9" offset=".13"/><stop stop-color="#EB8D95" offset=".217"/><stop stop-color="#E66C76" offset=".31"/><stop stop-color="#E1515D" offset=".408"/><stop stop-color="#DD3C49" offset=".515"/><stop stop-color="#DB2D3B" offset=".634"/><stop stop-color="#D92533" offset=".776"/><stop stop-color="#D92231" offset="1"/></linearGradient><path opacity=".8" d="M145.83 1.684h339.59s-3.062 16.504-22.38 30.342c0 0-9.898 7.446-14.049 7.379h-303.16v-37.721z" fill="url(#c)"/><path d="M96.311 74.296c.951.489 2.883 1.07 5.303 1.135 4.171.089 6.439-1.506 8.123-5.242l22.349-49.844c-.921-.491-2.975-1.042-4.63-1.074-2.881-.061-6.744.522-9.195 6.409l-7.22 17.07-14.196-23.11c-.92-.276-3.157-.675-4.784-.675-5.025 0-7.815 1.838-10.727 4.997l-13.794 15.083 11.095 17.469c2.054 3.188 4.753 4.813 9.136 4.813 2.882 0 5.273-.67 6.375-1.193l-13.365-20.14 9.472-10.055 15.542 24.399-9.469 19.958zm-29.318-18.855c0 3.678-1.442 5.797-8.614 5.797-.951 0-1.777-.065-2.575-.188v-48.736c0-3.709 1.256-7.573 8.491-7.573.92 0 1.838.094 2.698.276v50.424zm-14.795-7.355c0 6.865-4.476 11.862-13.581 12.844-6.59.706-16.123-.124-20.659-.644-.155-.737-.277-1.654-.277-2.391 0-5.979 3.218-7.356 6.252-7.356 3.158 0 8.125.55 11.804.55 4.075 0 5.301-1.381 5.301-2.697 0-1.718-1.623-2.419-4.782-3.034l-8.644-1.656c-7.173-1.381-11.004-6.346-11.004-11.619 0-6.404 4.536-11.77 13.457-12.75 6.744-.737 14.958.09 19.466.642.152.767.244 1.501.244 2.299 0 5.978-3.157 7.265-6.192 7.265-2.33 0-5.945-.429-10.085-.429-4.201 0-5.947 1.166-5.947 2.574 0 1.502 1.654 2.114 4.292 2.574l8.246 1.534c8.46 1.563 12.109 6.376 12.109 12.293z" fill="#FFF"/><path d="M209.23 51.405c0-8.581-5.586-12.754-14.482-14.721l-15.585-3.539c-2.833-.63-5.196-1.498-5.196-4.33 0-3.07 2.442-4.25 8.973-4.25 7.715 0 9.525.393 16.53.393 3.229 0 6.533-1.497 6.533-7.871 0-.789-.076-1.655-.234-2.442-4.724-.392-13.145-.865-23.534-.865-15.664 0-21.647 6.77-21.647 15.427 0 8.107 5.118 12.598 14.168 14.72l15.583 3.62c3.623.862 5.591 2.44 5.591 4.722 0 3.071-2.755 4.252-9.287 4.252-7.712 0-11.255-.549-18.262-.549-3.227 0-6.532 1.492-6.532 7.869 0 .787.079 1.651.236 2.44 4.725.469 14.877 1.023 25.264 1.023 15.67-.001 21.89-6.69 21.89-15.9z" fill="#FFF"/><path d="M337.84 37.551v-13.143h12.356c5.277 0 9.447.784 9.447 6.294 0 4.641-3.147 6.849-9.447 6.849h-12.363zm-.08 10.389h6.531l12.612 15.033c2.354 2.911 4.642 4.409 9.994 4.409 3.621 0 6.06-.471 8.023-1.419l-16.382-18.965c9.212-1.966 13.853-7.953 13.853-16.767 0-10.862-6.614-16.214-19.991-16.214l-19.125-.077c-6.216.235-8.268 2.359-8.268 8.027v44.55c.943.157 2.052.232 3.151.232 7.869 0 9.679-2.278 9.679-6.372l-.06-12.437z" fill="#FFF"/><path d="M227.72 38.968v-14.483h12.828c6.38 0 9.53 2.361 9.53 7.007 0 4.96-3.15 7.477-9.53 7.477h-12.828zm-12.83 27.55c.947.157 2.05.232 3.148.232 7.874 0 9.682-2.278 9.682-6.372v-10.784h13.38c14.562 0 21.803-6.295 21.803-18.102 0-11.414-7.241-17.475-20.936-17.475h-18.814c-6.295 0-8.263 2.44-8.263 8.028v44.473z" fill="#FFF"/><path d="M305.49 39.598c0 6.064-1.023 10.309-3.069 12.83-1.967 2.596-5.198 3.778-9.604 3.778-4.487-.081-7.709-1.338-9.76-3.778-2.042-2.44-3.068-6.689-3.068-12.83 0-6.06 1.102-10.31 3.147-12.751 2.047-2.519 5.274-3.699 9.68-3.699s7.557 1.18 9.604 3.699c2.04 2.441 3.07 6.691 3.07 12.751zm-12.68 27.077c8.263 0 14.642-1.967 19.13-5.981 4.482-3.938 6.77-11.023 6.77-21.096-.084-9.915-2.364-16.844-7.007-20.938-4.648-4.015-10.94-6.059-18.894-6.059-7.948 0-14.247 2.044-18.89 6.059-4.643 4.094-6.928 11.022-7.007 20.938 0 10.073 2.284 17.158 6.77 21.096 4.49 4.014 10.87 5.981 19.13 5.981z" fill="#FFF"/><path d="M406.24 24.802h10.312c3.386 0 6.844-1.575 6.844-8.269 0-.784-.076-1.73-.234-2.516h-40.061c-3.385 0-6.85 1.575-6.85 8.263 0 .79.08 1.731.242 2.522h16.919v41.715c.947.157 2.046.232 3.15.232 7.865 0 9.679-2.278 9.679-6.372v-35.575z" fill="#FFF"/><path d="M473.69 51.405c0-8.581-5.595-12.754-14.484-14.721l-15.586-3.539c-2.833-.63-5.195-1.498-5.195-4.33 0-3.07 2.438-4.25 8.971-4.25 7.717 0 9.528.393 16.53.393 3.231 0 6.534-1.497 6.534-7.871 0-.789-.072-1.655-.232-2.442-4.724-.392-13.147-.865-23.538-.865-15.66 0-21.646 6.77-21.646 15.427 0 8.107 5.117 12.598 14.17 14.72l15.584 3.62c3.623.862 5.59 2.44 5.59 4.722 0 3.071-2.757 4.252-9.286 4.252-7.714 0-11.254-.549-18.267-.549-3.226 0-6.531 1.492-6.531 7.869 0 .787.079 1.651.238 2.44 4.72.469 14.876 1.023 25.266 1.023 15.67-.001 21.89-6.69 21.89-15.9z" fill="#FFF"/></svg>